<?xml version="1.0" encoding="UTF-8"?>
<!DOCTYPE svg PUBLIC "-//W3C//DTD SVG 1.1//EN" "http://www.w3.org/Graphics/SVG/1.1/DTD/svg11.dtd">
<!-- Creator: CorelDRAW 2017 -->
<svg xmlns="http://www.w3.org/2000/svg" xml:space="preserve" width="265mm" height="102mm" version="1.1" style="shape-rendering:geometricPrecision; text-rendering:geometricPrecision; image-rendering:optimizeQuality; fill-rule:evenodd; clip-rule:evenodd"
viewBox="0 0 26500 10200"
 xmlns:xlink="http://www.w3.org/1999/xlink"
 xmlns:dc="http://purl.org/dc/elements/1.1/"
 xmlns:cc="http://creativecommons.org/ns#"
 xmlns:rdf="http://www.w3.org/1999/02/22-rdf-syntax-ns#"
 xmlns:svg="http://www.w3.org/2000/svg"
 xmlns:sodipodi="http://sodipodi.sourceforge.net/DTD/sodipodi-0.dtd"
 xmlns:inkscape="http://www.inkscape.org/namespaces/inkscape"
 sodipodi:docname="debian-ar21.svg"
 inkscape:version="0.92.2 (5c3e80d, 2017-08-06)">
 <defs>
  <style type="text/css">
   <![CDATA[
    .fil1 {fill:black}
    .fil0 {fill:#D70751}
   ]]>
  </style>
 </defs>
 <g id="Слой_x0020_1">
  <metadata id="CorelCorpID_0Corel-Layer"/>
  <g id="_523690694096">
   <sodipodi:namedview pagecolor="#ffffff" bordercolor="#666666" borderopacity="1" objecttolerance="10" gridtolerance="10" guidetolerance="10" inkscape:pageopacity="0" inkscape:pageshadow="2" inkscape:window-width="1920" inkscape:window-height="1001" id="namedview44" showgrid="false" units="px" inkscape:zoom="4.52" inkscape:cx="49.208057" inkscape:cy="-0.12412409" inkscape:window-x="-9" inkscape:window-y="-9" inkscape:window-maximized="1" inkscape:current-layer="svg42"/>
   <g id="g214">
    <g>
     <path id="path4" class="fil0" d="M5433 5536c-166,4 32,87 249,118 59,-47 115,-95 162,-138 -134,32 -273,32 -411,20l0 0zm0 0l0 0 0 0z" inkscape:connector-curvature="0"/>
    </g>
    <g>
     <path id="path6" class="fil0" d="M6326 5315c99,-138 170,-284 198,-439 -24,111 -83,205 -138,304 -312,194 -28,-115 0,-233 -336,419 -47,249 -59,367l0 0zm0 0l0 0 0 0z" inkscape:connector-curvature="0"/>
    </g>
    <path id="path8" class="fil0" d="M6654 4458c20,-300 -59,-205 -87,-91 32,20 55,213 87,91z" inkscape:connector-curvature="0"/>
    <path id="path10" class="fil0" d="M4805 373c87,16 194,28 178,47 95,-20 118,-39 -178,-47z" inkscape:connector-curvature="0"/>
    <polygon id="polyline12" class="fil0" points="4982,424 4919,436 4978,432 "/>
    <g>
     <path id="path14" class="fil0" d="M7151 4351c12,269 -79,399 -158,628l-142 71c-118,229 12,146 -71,328 -182,162 -557,510 -676,541 -87,0 59,-103 79,-142 -245,170 -198,253 -573,356l-12 -24c-924,435 -2212,-427 -2193,-1604 -8,75 -28,55 -47,87 -47,-604 281,-1213 834,-1462 541,-269 1173,-158 1560,201 -213,-277 -636,-573 -1138,-545 -490,8 -952,320 -1102,660 -253,158 -281,612 -391,695 -146,1082 277,1553 996,2102 115,75 32,87 47,146 -237,-111 -458,-281 -636,-486 95,138 198,277 332,383 -225,-75 -525,-545 -612,-565 387,695 1576,1221 2197,960 -288,12 -652,4 -976,-115 -134,-71 -320,-213 -288,-241 849,316 1723,241 2457,-348 186,-146 391,-391 450,-395 -87,134 16,63 -51,182 186,-300 -79,-122 194,-518l103 138c-39,-249 308,-553 273,-944 79,-118 87,130 4,407 118,-308 32,-356 59,-612 32,87 75,178 99,265 -75,-296 79,-502 115,-672 -39,-16 -118,130 -134,-221 4,-154 43,-79 59,-118 -32,-16 -107,-134 -154,-360 36,-51 91,138 138,142 -32,-178 -83,-312 -83,-450 -138,-288 -47,39 -162,-122 -146,-458 122,-107 138,-312 221,320 348,822 407,1027 -43,-253 -115,-498 -205,-731 67,28 -107,-518 87,-158 -209,-770 -897,-1493 -1529,-1829 79,71 174,158 138,174 -316,-186 -261,-201 -304,-281 -257,-103 -273,8 -442,0 -482,-257 -577,-229 -1019,-391l20 95c-320,-107 -371,39 -719,0 -20,-16 111,-59 221,-75 -308,39 -296,-59 -597,12 75,-51 154,-87 233,-130 -253,16 -604,146 -494,28 -411,186 -1142,442 -1553,826l-12 -87c-190,225 -818,676 -869,968l-51 12c-99,166 -162,352 -237,525 -126,217 -186,83 -170,118 -253,510 -375,940 -486,1292 75,115 0,691 32,1154 -126,2283 1600,4500 3492,5009 277,99 687,95 1039,107 -415,-118 -466,-63 -869,-201 -288,-138 -356,-292 -561,-470l83 142c-403,-142 -233,-178 -561,-281l87 -115c-130,-12 -348,-221 -407,-336l-142 4c-170,-213 -265,-363 -257,-482l-63 71c-51,-91 -632,-794 -332,-632 -55,-51 -130,-83 -209,-229l59 -71c-146,-186 -265,-427 -257,-506 79,103 130,122 186,142 -367,-909 -387,-51 -664,-924l59 -4c-43,-67 -71,-142 -107,-213l24 -253c-265,-304 -75,-1292 -36,-1837 28,-221 221,-454 367,-826l-91 -16c170,-300 980,-1201 1351,-1154 182,-229 -36,0 -71,-59 399,-411 521,-292 790,-363 288,-170 -249,67 -111,-67 502,-126 356,-292 1007,-356 67,39 -158,59 -217,111 415,-205 1320,-158 1904,115 680,316 1442,1256 1474,2141l36 8c-16,352 55,759 -71,1130l83 -170 0 0zm0 0l0 0 0 0z" inkscape:connector-curvature="0"/>
    </g>
    <path id="path16" class="fil0" d="M3623 5765l-24 115c111,150 198,308 336,423 -103,-194 -178,-273 -312,-537z" inkscape:connector-curvature="0"/>
    <g>
     <path id="path18" class="fil0" d="M3880 5754c-59,-63 -91,-142 -130,-217 36,134 111,249 182,367l-51 -150 0 0zm0 0l0 0 0 0z" inkscape:connector-curvature="0"/>
    </g>
    <g>
     <path id="path20" class="fil0" d="M8443 4762l-24 63c-43,316 -142,632 -288,924 162,-308 269,-644 312,-988l0 0zm0 0l0 0 0 0z" inkscape:connector-curvature="0"/>
    </g>
    <path id="path22" class="fil0" d="M4836 294c111,-39 277,-24 395,-51 -154,12 -308,20 -462,39l67 12z" inkscape:connector-curvature="0"/>
    <path id="path24" class="fil0" d="M897 2388c28,241 -182,332 47,174 118,-269 -51,-71 -47,-174z" inkscape:connector-curvature="0"/>
    <path id="path26" class="fil0" d="M633 3498c51,-158 63,-257 83,-348 -146,182 -67,221 -83,348z" inkscape:connector-curvature="0"/>
   </g>
   <g>
    <path id="path28-7" class="fil1" d="M9894 5871c0,1978 1051,1978 1207,1978 436,0 717,-237 835,-652l16 625c135,-5 269,-22 485,-22 75,0 140,0 194,5 54,0 113,5 178,16 -113,-226 -194,-728 -194,-1827 0,-1067 0,-2872 92,-3422 -253,119 -469,199 -948,237 189,205 189,307 189,1234 -135,-43 -302,-92 -587,-92 -1261,11 -1466,1105 -1466,1919l0 0zm2037 -825c-5,5 -5,1137 -22,1433 -16,237 -38,749 -539,749 -517,0 -647,-598 -690,-857 -48,-286 -48,-528 -48,-631 0,-340 22,-1277 814,-1277 237,0 372,70 480,124l5 458z" inkscape:connector-curvature="0"/>
   </g>
   <g>
    <path id="path30-8" class="fil1" d="M15596 5585c0,-819 -162,-1627 -1202,-1627 -1433,0 -1433,1584 -1433,1924 0,1423 641,1989 1714,1989 480,0 711,-70 835,-108 -5,-253 27,-415 70,-631 -146,92 -340,210 -760,210 -1094,0 -1110,-997 -1110,-1342l1870 0 16 -415 0 0zm-1892 -70c5,-582 124,-1105 625,-1105 550,0 587,604 577,1105l-1202 0z" inkscape:connector-curvature="0"/>
   </g>
   <g>
    <path id="path32-9" class="fil1" d="M15865 6652c0,517 0,814 -86,1040 286,113 647,178 1072,178 275,0 1067,0 1498,-878 205,-410 275,-954 275,-1369 0,-253 -27,-808 -232,-1159 -194,-329 -512,-496 -851,-496 -674,0 -873,560 -975,852 0,-356 5,-1606 65,-2247 -458,210 -738,248 -1040,275 275,113 275,577 275,2086l0 1719 0 0zm2015 -765c0,652 -119,1531 -932,1531 -113,0 -253,-22 -345,-43 -16,-253 -16,-690 -16,-1191 0,-604 65,-922 113,-1072 146,-496 480,-507 539,-507 539,0 641,733 641,1283z" inkscape:connector-curvature="0"/>
   </g>
   <g>
    <path id="path34-6" class="fil1" d="M19977 7827c-140,-22 -237,-38 -442,-38 -226,0 -377,16 -539,38 70,-135 97,-199 119,-652 27,-625 38,-2296 -16,-2646 -38,-269 -97,-307 -194,-377 577,-54 738,-97 1002,-226 -54,307 -65,463 -65,932 -16,2420 -22,2678 135,2969l0 0zm0 0l0 0 0 0z" inkscape:connector-curvature="0"/>
   </g>
   <g>
    <path id="path36-4" class="fil1" d="M20295 6700c0,442 135,884 528,1072 178,75 350,75 410,75 647,0 862,-480 997,-771 -5,307 0,496 22,744 124,-5 253,-22 464,-22 119,0 232,16 350,22 -75,-119 -119,-189 -140,-464 -16,-264 -16,-534 -16,-905l5 -1433c0,-534 -140,-1062 -1196,-1062 -695,0 -1105,210 -1304,318 86,156 156,286 216,587 275,-237 631,-366 997,-366 582,0 582,388 582,932 -135,-5 -248,-22 -436,-22 -889,11 -1477,356 -1477,1293l0 0zm1929 -862c-16,442 -22,749 -140,997 -146,318 -393,410 -577,410 -420,0 -512,-350 -512,-695 0,-657 587,-711 857,-711l372 0z" inkscape:connector-curvature="0"/>
   </g>
   <path id="path38-5" class="fil1" d="M26271 7132c5,237 5,490 108,695 -156,-16 -248,-38 -534,-38 -167,0 -259,16 -393,38 27,-92 43,-124 54,-248 22,-162 38,-701 38,-889l0 -760c0,-329 0,-808 -22,-975 -16,-119 -48,-442 -458,-442 -399,0 -534,296 -582,534 -54,248 -54,512 -54,1552 5,900 5,981 75,1229 -119,-16 -264,-27 -480,-27 -167,0 -280,5 -420,27 48,-113 75,-167 92,-560 16,-388 43,-2285 -22,-2732 -32,-275 -108,-340 -183,-410 571,-27 749,-119 927,-210l0 744c86,-216 259,-701 965,-701 878,0 884,641 889,1062l0 2113z" inkscape:connector-curvature="0"/>
   <polygon id="polyline40-0" class="fil0" points="20036,2928 19454,3510 18872,2928 19454,2346 "/>
  </g>
 </g>
</svg>
