<?xml version="1.0" encoding="UTF-8"?>
<svg id="Layer_2" data-name="Layer 2" xmlns="http://www.w3.org/2000/svg" viewBox="0 0 152.4 111.06">
  <defs>
    <style>
      .cls-1 {
        fill: #E84545;
        stroke: #E84545;
        stroke-miterlimit: 10;
        stroke-width: 2px;
      }
    </style>
  </defs>
  <g id="Layer_1-2" data-name="Layer 1">
    <path class="cls-1" d="M86.91,28.17c-3.1-5.76-7.12-10.67-12.05-14.72-1.67-1.37-3.44-2.64-5.31-3.81-2.48-1.53-5.27-2.88-8.39-4.04-2.33-.87-4.85-1.63-7.54-2.29-6.27-1.54-14.73-2.31-25.38-2.31h-13.62C7.09,1,1,7.1,1,14.62v81.81c0,7.53,6.13,12.88,13.62,13.63h13.92c10.01,0,18.07-.69,24.2-2.05,6.13-1.37,11.69-3.59,16.67-6.67,7.17-4.44,12.92-10.69,17.24-18.75,4.33-8.06,6.49-17.04,6.49-26.95,0-10.6-2.08-19.75-6.23-27.47ZM73.91,76.66c-2.71,5.66-6.77,10.23-12.19,13.69-3.69,2.36-7.67,4.09-11.97,5.18-.77.21-1.56.38-2.35.54-2.6.51-5.42.9-8.47,1.15-1.38.12-2.81.21-4.29.27-1.77.08-3.61.12-5.52.12-7.52,0-13.62-6.1-13.62-13.63V27.07c0-3.76,1.52-7.16,3.99-9.63s5.87-3.99,9.63-3.99c1.92,0,3.76.04,5.52.12,4.44.19,8.38.63,11.84,1.31,1.11.22,2.2.47,3.27.77,3.64,1,7.11,2.44,10.43,4.32,1.78,1.02,3.43,2.15,4.95,3.39,2.38,1.96,4.43,4.19,6.15,6.7.82,1.19,1.56,2.44,2.23,3.75,2.97,5.86,4.47,13.06,4.47,21.61s-1.36,15.57-4.07,21.24Z"/>
    <g>
      <path class="cls-1" d="M151.4,7.61v14.76c0,2.9-2.35,5.25-5.25,5.25h0c-2.9,0-5.25-2.35-5.25-5.25v-4.9c0-1.97-1.6-3.57-3.57-3.57h-18.44c-3.55,0-6.44,2.88-6.44,6.44v83.26c0,3.57-2.89,6.45-6.45,6.45h-1.61c-3.56,0-6.44-2.88-6.44-6.44V20.25c0-3.76-3.04-6.8-6.8-6.8h-4.31c-3.44,0-6.22-2.79-6.22-6.22h0c0-3.44,2.78-6.23,6.22-6.23h57.86c3.63,0,6.8,2.98,6.71,6.61Z"/>
      <path class="cls-1" d="M83.67,12.58l-8.4-7.56c-1.57-1.41-.57-4.02,1.54-4.02h13.22"/>
    </g>
  </g>
</svg>