<?xml version="1.0" encoding="UTF-8"?>
<svg id="Layer_2" data-name="Layer 2" xmlns="http://www.w3.org/2000/svg" viewBox="0 0 254.47 111.06">
  <defs>
    <style>
      .cls-1 {
        fill: #E84545;
        stroke: #E84545;
        stroke-miterlimit: 10;
        stroke-width: 2px;
      }
    </style>
  </defs>
  <g id="Layer_1-2" data-name="Layer 1">
    <path class="cls-1" d="M86.91,28.17c-3.1-5.76-7.12-10.67-12.05-14.72-1.67-1.37-3.44-2.64-5.31-3.81-2.48-1.53-5.27-2.88-8.39-4.04-2.33-.87-4.85-1.63-7.54-2.29-6.27-1.54-14.73-2.31-25.38-2.31h-13.62C7.09,1,1,7.1,1,14.62v81.81c0,7.53,6.13,12.88,13.62,13.63h13.92c10.01,0,18.07-.69,24.2-2.05,6.13-1.37,11.69-3.59,16.67-6.67,7.17-4.44,12.92-10.69,17.24-18.75,4.33-8.06,6.49-17.04,6.49-26.95,0-10.6-2.08-19.75-6.23-27.47ZM73.91,76.66c-2.71,5.66-6.77,10.23-12.19,13.69-3.69,2.36-7.67,4.09-11.97,5.18-.77.21-1.56.38-2.35.54-2.6.51-5.42.9-8.47,1.15-1.38.12-2.81.21-4.29.27-1.77.08-3.61.12-5.52.12-7.52,0-13.62-6.1-13.62-13.63V27.07c0-3.76,1.52-7.16,3.99-9.63s5.87-3.99,9.63-3.99c1.92,0,3.76.04,5.52.12,4.44.19,8.38.63,11.84,1.31,1.11.22,2.2.47,3.27.77,3.64,1,7.11,2.44,10.43,4.32,1.78,1.02,3.43,2.15,4.95,3.39,2.38,1.96,4.43,4.19,6.15,6.7.82,1.19,1.56,2.44,2.23,3.75,2.97,5.86,4.47,13.06,4.47,21.61s-1.36,15.57-4.07,21.24Z"/>
    <g>
      <path class="cls-1" d="M141.61,106.56c0,.43-.29.82-.72.91-.31.06-.63.12-.97.17-.61.09-1.15.13-1.63.13-1.67,0-2.94-.45-3.81-1.35s-1.3-2.34-1.3-4.32v-7.77c0-.51-.42-.93-.93-.93h0c-.51,0-.93-.42-.93-.93v-.45c0-.51.42-.93.93-.93h0c.51,0,.93-.42.93-.93v-2.84c0-.51.42-.93.93-.93h.89c.51,0,.93.42.93.93v2.84c0,.51.42.93.93.93h3.82c.51,0,.93.42.93.93v.45c0,.51-.42.93-.93.93h-3.82c-.51,0-.93.42-.93.93v6.53c0,.86.02,1.53.06,2.01s.18.94.41,1.35c.21.39.51.68.89.86s.95.27,1.72.27c.45,0,.92-.07,1.41-.2s.84-.24,1.05-.33h.15v1.74Z"/>
      <path class="cls-1" d="M157.14,99.55h-8.9c-.96,0-1.69.9-1.46,1.83.07.28.15.55.26.8.3.75.72,1.36,1.25,1.84.51.47,1.11.82,1.81,1.05s1.47.35,2.31.35c1.11,0,2.23-.22,3.36-.67s1.93-.88,2.41-1.31h.15v1.99c0,.64-.41,1.19-1.01,1.41s-1.22.42-1.84.59c-.97.26-1.98.4-3.05.4-2.71,0-4.83-.73-6.36-2.2s-2.29-3.56-2.29-6.26.73-4.8,2.19-6.37,3.38-2.36,5.76-2.36c2.21,0,3.91.64,5.1,1.93s1.79,3.12,1.79,5.49h0c0,.83-.67,1.49-1.49,1.49ZM154.24,97.44c1.02,0,1.75-1,1.43-1.96-.18-.54-.45-1.01-.8-1.39-.72-.79-1.81-1.19-3.27-1.19s-2.65.43-3.52,1.3c-.32.32-.59.66-.81,1.04-.57.97.19,2.2,1.32,2.2h5.65Z"/>
      <path class="cls-1" d="M164.22,107.44h0c-.76,0-1.38-.62-1.38-1.38v-20.04c0-.76.62-1.38,1.38-1.38h0c.76,0,1.38.62,1.38,1.38v20.04c0,.76-.62,1.38-1.38,1.38Z"/>
      <path class="cls-1" d="M183.25,99.55h-8.9c-.96,0-1.69.9-1.46,1.83.07.28.15.55.26.8.3.75.72,1.36,1.25,1.84.51.47,1.11.82,1.81,1.05s1.47.35,2.31.35c1.11,0,2.23-.22,3.36-.67s1.93-.88,2.41-1.31h.15v1.99c0,.64-.41,1.19-1.01,1.41s-1.22.42-1.84.59c-.97.26-1.98.4-3.05.4-2.71,0-4.83-.73-6.36-2.2s-2.29-3.56-2.29-6.26.73-4.8,2.19-6.37,3.38-2.36,5.76-2.36c2.21,0,3.91.64,5.1,1.93s1.79,3.12,1.79,5.49h0c0,.83-.67,1.49-1.49,1.49ZM180.34,97.44c1.02,0,1.75-1,1.43-1.96-.18-.54-.45-1.01-.8-1.39-.72-.79-1.81-1.19-3.27-1.19s-2.65.43-3.52,1.3c-.32.32-.59.66-.81,1.04-.57.97.19,2.2,1.32,2.2h5.65Z"/>
      <path class="cls-1" d="M200.97,107.44h-.3c-.34,0-.67-.14-.9-.4l-5.36-5.85c-.46-.5-1.24-.53-1.74-.06l-.51.48c-.24.23-.38.55-.38.88v3.72c0,.67-.55,1.22-1.22,1.22h-.31c-.67,0-1.22-.55-1.22-1.22v-20.35c0-.67.55-1.22,1.22-1.22h.31c.67,0,1.22.55,1.22,1.22v10.39c0,1.09,1.33,1.64,2.09.85l5.5-5.66c.23-.24.55-.37.87-.37h0c1.09,0,1.63,1.32.86,2.08l-4.67,4.64c-.47.46-.48,1.21-.03,1.69l5.46,5.89c.72.78.17,2.05-.89,2.05Z"/>
      <path class="cls-1" d="M220.32,99.27c0,2.67-.68,4.77-2.05,6.31s-3.2,2.31-5.49,2.31-4.15-.77-5.52-2.31-2.04-3.65-2.04-6.31.68-4.77,2.04-6.32,3.2-2.32,5.52-2.32,4.13.77,5.49,2.32,2.05,3.65,2.05,6.32ZM217.48,99.27c0-2.12-.42-3.69-1.25-4.72s-1.98-1.55-3.46-1.55-2.65.52-3.48,1.55-1.24,2.6-1.24,4.72.42,3.61,1.25,4.67,1.99,1.59,3.47,1.59,2.61-.52,3.45-1.57,1.25-2.61,1.25-4.68Z"/>
      <path class="cls-1" d="M247.08,107.44h0c-.76,0-1.38-.62-1.38-1.38v-7.94c0-.7-.03-1.38-.1-2.04s-.2-1.18-.4-1.57c-.22-.42-.55-.74-.97-.95s-1.03-.32-1.82-.32-1.54.19-2.31.58-1.54.88-2.31,1.47c.03.22.05.49.07.78s.03.59.03.89v9.1c0,.76-.62,1.38-1.38,1.38h0c-.76,0-1.38-.62-1.38-1.38v-7.94c0-.72-.03-1.41-.1-2.06s-.2-1.17-.4-1.56c-.22-.42-.55-.73-.97-.94s-1.03-.31-1.82-.31-1.51.19-2.26.56c-.57.28-1.13.61-1.69,1-.36.25-.57.68-.57,1.12v10.13c0,.76-.62,1.38-1.38,1.38h0c-.76,0-1.38-.62-1.38-1.38v-13.61c0-.76.62-1.38,1.38-1.38h0c.76,0,1.38.62,1.38,1.38v.44c.86-.71,1.72-1.27,2.57-1.67s1.77-.6,2.73-.6c1.11,0,2.06.23,2.83.7.4.24.74.53,1.04.86.47.54,1.27.61,1.84.19.68-.49,1.31-.86,1.9-1.13.92-.42,1.9-.62,2.94-.62,1.8,0,3.12.54,3.98,1.63s1.28,2.61,1.28,4.56v9.24c0,.76-.62,1.38-1.38,1.38Z"/>
      <g>
        <path class="cls-1" d="M150.23,60.36c0,1.93-.42,3.69-1.26,5.26s-1.96,2.79-3.36,3.66c-.97.6-2.05,1.03-3.25,1.3s-2.77.4-4.72.4h-4.25c-.62,0-1.12-.5-1.12-1.12v-19.03c0-.62.5-1.12,1.12-1.12h4.19c2.08,0,3.73.15,4.95.45s2.26.71,3.11,1.24c1.45.9,2.58,2.11,3.39,3.61s1.21,3.29,1.21,5.36ZM147.27,60.31c0-1.67-.29-3.07-.87-4.21s-1.45-2.04-2.6-2.7c-.84-.48-1.73-.81-2.67-.99s-2.07-.28-3.39-.28h-1.54c-.62,0-1.12.5-1.12,1.12v14.17c0,.62.5,1.12,1.12,1.12h1.54c1.36,0,2.55-.1,3.56-.3s1.95-.57,2.79-1.11c1.06-.68,1.85-1.57,2.38-2.67s.79-2.49.79-4.14Z"/>
        <path class="cls-1" d="M166.99,69.85c0,.62-.5,1.12-1.12,1.12h-1.55v-1.7c-.24.16-.56.39-.96.68s-.8.52-1.18.69c-.45.22-.96.4-1.54.55s-1.26.22-2.04.22c-1.44,0-2.66-.48-3.66-1.43s-1.5-2.17-1.5-3.64c0-1.21.26-2.19.78-2.94s1.26-1.34,2.22-1.76c.97-.43,2.14-.72,3.5-.87s2.82-.27,4.39-.34v-.41c0-.61-.11-1.11-.32-1.51s-.52-.71-.92-.94c-.38-.22-.84-.37-1.37-.44s-1.09-.11-1.67-.11c-.7,0-1.49.09-2.36.28s-1.76.45-2.69.81h-.14v-1.84c0-.53.36-.99.88-1.09.4-.08.86-.17,1.4-.26.99-.17,1.97-.26,2.93-.26,1.12,0,2.1.09,2.94.28s1.55.5,2.16.95c.6.44,1.06,1,1.37,1.7s.47,1.56.47,2.59v9.71ZM164.32,66.46v-2.67c0-.65-.55-1.17-1.2-1.12-.52.04-1.09.08-1.7.14-1.11.1-1.99.23-2.64.41-.77.22-1.4.56-1.87,1.02s-.71,1.1-.71,1.91c0,.91.28,1.6.83,2.06s1.4.69,2.53.69c.94,0,1.8-.18,2.59-.55.6-.28,1.17-.61,1.71-.98.3-.21.47-.56.47-.92Z"/>
        <path class="cls-1" d="M183.56,66.37c0,1.02-.3,1.92-.91,2.69s-1.44,1.36-2.49,1.76c.02.18.04.4.06.66s.04.51.04.76c0,1.54-.44,2.72-1.31,3.54s-2,1.23-3.39,1.23c-.35,0-.8-.03-1.36-.1s-1.04-.16-1.47-.27v-2.29h.13c.25.1.58.2,1,.33s.87.19,1.34.19c.99,0,1.72-.19,2.19-.56s.7-.98.7-1.81c0-.23,0-.45-.02-.66s-.03-.39-.05-.54c-.2.02-.4.03-.59.04s-.4.01-.61.01c-1.18,0-2.26-.14-3.25-.42-.67-.19-1.26-.39-1.78-.61-.42-.17-.7-.58-.7-1.04v-2.29h.14c.85.64,1.79,1.15,2.83,1.52s2.03.56,2.99.56c1.18,0,2.1-.19,2.77-.57s1-.98,1-1.8c0-.63-.18-1.1-.54-1.43s-1.06-.6-2.09-.83c-.38-.09-.88-.19-1.49-.3s-1.17-.24-1.68-.37c-1.4-.37-2.39-.92-2.98-1.64s-.88-1.6-.88-2.65c0-.66.14-1.28.41-1.86s.68-1.1,1.24-1.56c.53-.45,1.21-.8,2.04-1.06s1.75-.39,2.76-.39c.95,0,1.92.12,2.89.35.65.15,1.22.33,1.72.53.43.17.71.58.71,1.05v2.14h-.14c-.69-.5-1.52-.93-2.5-1.28s-1.94-.52-2.89-.52-1.81.19-2.49.56-1.01.94-1.01,1.68c0,.66.2,1.15.61,1.49.4.33,1.05.6,1.94.81.5.11,1.05.23,1.66.34s1.13.22,1.54.31c1.25.29,2.21.78,2.89,1.47.68.7,1.01,1.64,1.01,2.8Z"/>
        <path class="cls-1" d="M201,63c0,2.6-.67,4.65-2,6.16s-3.12,2.26-5.36,2.26-4.05-.75-5.38-2.26-1.99-3.56-1.99-6.16.66-4.65,1.99-6.16,3.12-2.26,5.38-2.26,4.02.75,5.36,2.26,2,3.56,2,6.16ZM198.23,63c0-2.07-.4-3.6-1.21-4.61s-1.93-1.51-3.37-1.51-2.59.5-3.39,1.51-1.21,2.54-1.21,4.61.4,3.52,1.21,4.55,1.94,1.55,3.39,1.55,2.55-.51,3.36-1.54,1.22-2.55,1.22-4.56Z"/>
        <path class="cls-1" d="M218.1,69.16c0,2.7-.61,4.69-1.84,5.96s-3.12,1.9-5.67,1.9c-.85,0-1.67-.06-2.48-.18-.51-.08-1.02-.17-1.53-.29s-.85-.58-.85-1.1v-1.86h.14c.44.17,1.13.38,2.09.64s1.9.38,2.86.38,1.67-.11,2.27-.33,1.07-.52,1.4-.91c.33-.37.57-.82.71-1.34s.21-1.11.21-1.76v-1.46c-.81.65-1.58,1.13-2.32,1.45s-1.68.48-2.82.48c-1.9,0-3.42-.69-4.54-2.06s-1.68-3.32-1.68-5.82c0-1.37.19-2.55.58-3.55s.91-1.85,1.58-2.58c.62-.68,1.37-1.2,2.26-1.58s1.77-.56,2.64-.56c.92,0,1.7.09,2.32.28s1.28.47,1.98.85l.17-.69h1.39c.62,0,1.12.5,1.12,1.12v13.02ZM215.42,66v-7.37c0-.45-.27-.87-.69-1.03-.46-.18-.89-.31-1.31-.4-.61-.14-1.27-.45-1.84-.21-3.49,1.49-2.64.5-3.49,1.49s-1.27,2.43-1.27,4.31.31,3.15.94,4.07,1.67,1.39,3.13,1.39c.78,0,1.56-.15,2.35-.45.6-.23,1.16-.52,1.69-.87.31-.2.48-.56.48-.93Z"/>
        <path class="cls-1" d="M235.49,70.97h-.44c-.62,0-1.12-.5-1.12-1.12v-.65c-.9.71-1.77,1.26-2.6,1.64s-1.74.57-2.74.57c-1.68,0-2.98-.51-3.91-1.54s-1.4-2.53-1.4-4.51v-9.24c0-.62.5-1.12,1.12-1.12h.44c.62,0,1.12.5,1.12,1.12v7.96c0,.81.04,1.5.11,2.08s.24,1.07.49,1.48c.26.42.59.72,1,.91s1,.29,1.79.29c.7,0,1.45-.18,2.28-.54.65-.29,1.26-.63,1.85-1.04.29-.21.46-.56.46-.92v-10.22c0-.62.5-1.12,1.12-1.12h.44c.62,0,1.12.5,1.12,1.12v13.71c0,.62-.5,1.12-1.12,1.12Z"/>
        <path class="cls-1" d="M252.35,70.97h-10.64c-.62,0-1.12-.5-1.12-1.12v-.47c0-.25.09-.5.24-.7l7.62-9.6c.58-.74.06-1.82-.88-1.82h-5.66c-.62,0-1.12-.5-1.12-1.12h0c0-.62.5-1.12,1.12-1.12h10.2c.62,0,1.12.5,1.12,1.12v.4c0,.25-.09.5-.24.7l-7.66,9.65c-.58.73-.06,1.82.88,1.82h6.14c.62,0,1.12.5,1.12,1.12v.03c0,.62-.5,1.12-1.12,1.12Z"/>
      </g>
    </g>
    <g>
      <path class="cls-1" d="M151.4,7.61v14.76c0,2.9-2.35,5.25-5.25,5.25h0c-2.9,0-5.25-2.35-5.25-5.25v-4.9c0-1.97-1.6-3.57-3.57-3.57h-18.44c-3.55,0-6.44,2.88-6.44,6.44v83.26c0,3.57-2.89,6.45-6.45,6.45h-1.61c-3.56,0-6.44-2.88-6.44-6.44V20.25c0-3.76-3.04-6.8-6.8-6.8h-4.31c-3.44,0-6.22-2.79-6.22-6.22h0c0-3.44,2.78-6.23,6.22-6.23h57.86c3.63,0,6.8,2.98,6.71,6.61Z"/>
      <path class="cls-1" d="M83.67,12.58l-8.4-7.56c-1.57-1.41-.57-4.02,1.54-4.02h13.22"/>
    </g>
  </g>
</svg>