<?xml version="1.0" standalone="no"?>
<!DOCTYPE svg PUBLIC "-//W3C//DTD SVG 20010904//EN"
 "http://www.w3.org/TR/2001/REC-SVG-20010904/DTD/svg10.dtd">
<svg version="1.0" xmlns="http://www.w3.org/2000/svg"
 width="1920.000000pt" height="1080.000000pt" viewBox="0 0 1920.000000 1080.000000"
 preserveAspectRatio="xMidYMid meet">
<g transform="translate(0.000000,1080.000000) scale(0.100000,-0.100000)"
fill="#000000" stroke="none">
<path d="M0 5400 l0 -5400 9600 0 9600 0 0 5400 0 5400 -9600 0 -9600 0 0
-5400z m6276 2640 c1178 -93 1834 -646 1988 -1677 40 -266 44 -618 11 -863
-60 -434 -218 -807 -467 -1105 -395 -472 -937 -736 -1631 -794 -75 -7 -408
-11 -803 -11 l-674 0 0 2230 0 2230 724 0 c397 0 781 -5 852 -10z m1844 -230
l0 -240 -175 0 -175 0 -80 69 c-217 187 -477 318 -770 385 l-105 25 653 0 652
1 0 -240z"/>
<path d="M5250 5809 l0 -1721 468 5 c257 3 482 9 500 12 l32 7 0 1709 0 1709
-500 0 -500 0 0 -1721z"/>
<path d="M6790 7408 c0 -7 0 -717 0 -1578 0 -861 0 -1568 0 -1573 0 -12 149
67 245 131 363 240 576 590 661 1082 21 127 30 512 15 662 -65 627 -335 1036
-825 1249 -102 45 -96 43 -96 27z"/>
</g>
</svg>
