<?xml version="1.0" standalone="no"?>
<!DOCTYPE svg PUBLIC "-//W3C//DTD SVG 20010904//EN"
 "http://www.w3.org/TR/2001/REC-SVG-20010904/DTD/svg10.dtd">
<svg version="1.0" xmlns="http://www.w3.org/2000/svg"
 width="253.000000pt" height="303.000000pt" viewBox="0 0 253.000000 303.000000"
 preserveAspectRatio="xMidYMid meet">

<g transform="translate(0.000000,303.000000) scale(0.100000,-0.100000)"
fill="#ffffff" stroke="none">
<path d="M75 2988 c-3 -7 -4 -677 -3 -1488 l3 -1475 480 1 c521 0 614 7 819
59 527 135 910 507 1041 1010 82 316 70 744 -29 1040 -124 369 -366 616 -729
744 -279 98 -497 120 -1185 121 -305 0 -394 -3 -397 -12z m1035 -1477 l0
-1139 -22 -6 c-34 -10 -568 -20 -611 -12 l-37 7 0 1144 0 1145 335 0 335 0 0
-1139z m413 1047 c138 -57 289 -174 371 -287 139 -189 203 -451 193 -786 -11
-379 -106 -618 -328 -830 -83 -79 -244 -185 -281 -185 -17 0 -18 42 -18 1055
0 580 3 1055 6 1055 3 0 29 -10 57 -22z"/>
<path d="M1651 2991 l-103 -6 87 -24 c125 -34 283 -117 395 -206 l94 -75 113
0 114 0 -3 158 -3 157 -295 1 c-162 0 -342 -2 -399 -5z"/>
</g>
</svg>
