<?xml version="1.0" standalone="no"?>
<!DOCTYPE svg PUBLIC "-//W3C//DTD SVG 20010904//EN"
 "http://www.w3.org/TR/2001/REC-SVG-20010904/DTD/svg10.dtd">
<svg version="1.0" xmlns="http://www.w3.org/2000/svg"
 width="465.000000pt" height="309.000000pt" viewBox="0 0 465.000000 309.000000"
 preserveAspectRatio="xMidYMid meet">

<g transform="translate(0.000000,309.000000) scale(0.100000,-0.100000)"
fill="#E84545" stroke="none">
<path d="M64 3039 c-8 -10 -11 -448 -10 -1489 l1 -1475 460 1 c479 1 599 8
775 46 388 83 705 291 913 597 229 339 304 825 202 1314 -109 522 -453 850
-1009 962 -185 37 -290 43 -826 51 -416 6 -497 4 -506 -7z m1026 -1479 l0
-1139 -37 -8 c-21 -4 -171 -7 -333 -8 l-295 0 -3 1148 -2 1147 335 0 335 0 0
-1140z m436 1040 c227 -102 396 -292 477 -536 47 -142 67 -285 67 -473 0 -426
-125 -725 -396 -947 -54 -44 -193 -124 -216 -124 -17 0 -18 51 -18 1055 0 624
4 1055 9 1055 5 0 40 -14 77 -30z"/>
<path d="M1645 3042 l-110 -3 101 -34 c160 -53 292 -126 412 -229 l54 -46 114
0 115 0 -3 158 -3 157 -285 0 c-157 1 -334 -1 -395 -3z"/>
<path d="M2458 1084 c-5 -4 -8 -97 -8 -207 l0 -199 119 4 c138 4 160 14 199
88 31 63 31 170 -1 231 -36 67 -72 83 -197 87 -58 2 -108 0 -112 -4z m233 -92
c33 -36 44 -103 28 -165 -16 -67 -37 -81 -125 -85 l-74 -4 0 139 c0 77 3 143
8 147 4 5 36 6 72 2 55 -5 69 -10 91 -34z"/>
<path d="M3505 975 c-48 -17 -71 -43 -86 -98 -37 -138 77 -248 198 -190 53 25
73 65 73 147 0 66 -1 70 -39 107 -21 22 -48 39 -59 39 -11 0 -26 2 -34 5 -7 2
-31 -2 -53 -10z m100 -65 c11 -12 20 -41 23 -73 3 -42 0 -57 -18 -79 -27 -35
-80 -38 -110 -8 -28 28 -28 117 1 154 26 33 77 36 104 6z"/>
<path d="M3816 979 c-110 -30 -131 -218 -32 -281 24 -15 43 -18 84 -14 56 5
64 -3 42 -45 -15 -27 -93 -27 -112 0 -18 26 -57 36 -64 17 -6 -17 12 -56 35
-73 50 -38 157 -21 193 30 22 30 23 41 23 197 l0 165 -30 -2 c-16 -2 -34 -3
-40 -4 -5 0 -23 3 -40 9 -16 5 -43 5 -59 1z m83 -68 c26 -26 36 -82 21 -125
-18 -57 -68 -73 -108 -36 -31 29 -32 130 -2 160 25 25 64 26 89 1z"/>
<path d="M2891 966 c-24 -13 -50 -51 -51 -72 0 -7 11 -14 25 -17 19 -3 29 1
37 17 15 30 28 36 71 36 31 0 40 -5 49 -26 15 -33 4 -40 -76 -49 -47 -6 -66
-14 -88 -35 -81 -81 23 -183 137 -136 25 11 41 13 43 6 2 -5 17 -10 34 -10
l31 0 -7 46 c-3 26 -6 82 -6 126 0 70 -3 82 -25 103 -21 21 -33 25 -87 25 -35
-1 -74 -7 -87 -14z m135 -191 c-15 -59 -126 -69 -126 -11 0 21 7 27 38 35 87
22 99 19 88 -24z"/>
<path d="M3169 951 c-58 -58 -30 -111 77 -146 52 -17 69 -27 69 -41 0 -44 -90
-49 -110 -6 -10 22 -58 32 -69 14 -10 -17 27 -71 60 -87 32 -15 34 -19 34 -65
0 -27 4 -51 10 -55 16 -10 50 33 50 65 0 24 8 35 39 54 23 15 43 38 49 56 21
59 -7 93 -99 120 -74 22 -87 33 -69 55 20 24 77 19 95 -9 11 -17 22 -22 40
-18 14 2 25 10 25 17 0 47 -45 75 -120 75 -44 0 -56 -5 -81 -29z"/>
<path d="M4043 965 c-3 -9 -3 -67 0 -128 5 -101 8 -112 31 -136 21 -21 35 -25
73 -24 27 1 69 2 96 2 l47 1 0 151 0 150 -27 -3 -28 -3 -5 -108 c-4 -93 -8
-111 -24 -123 -25 -18 -70 -18 -84 -1 -6 7 -13 62 -14 123 l-3 109 -28 3 c-18
2 -29 -2 -34 -13z"/>
<path d="M4340 951 l0 -30 76 -3 76 -3 -81 -92 c-56 -64 -81 -99 -81 -117 l0
-26 130 0 c109 0 132 3 137 16 10 25 -8 32 -90 35 -43 2 -80 6 -82 9 -2 3 35
50 81 104 47 54 84 106 82 115 -3 13 -22 16 -126 19 l-122 3 0 -30z"/>
<path d="M2585 518 c-3 -8 -4 -99 -3 -203 l3 -190 30 0 30 0 0 200 0 200 -28
3 c-16 2 -29 -2 -32 -10z"/>
<path d="M3015 508 c-3 -13 -4 -104 -3 -203 l3 -180 27 -3 c30 -4 35 7 40 82
2 22 8 41 15 43 7 3 31 -25 53 -61 39 -61 45 -66 77 -66 43 0 42 3 -28 106
l-51 76 51 52 c54 54 56 66 11 66 -18 0 -41 -15 -75 -50 l-50 -51 -5 103 -5
103 -27 3 c-22 3 -29 -2 -33 -20z"/>
<path d="M2152 500 c-13 -12 -22 -33 -22 -49 0 -20 -6 -30 -20 -34 -12 -3 -20
-14 -20 -26 0 -14 6 -21 20 -21 19 0 20 -7 20 -108 0 -96 2 -111 20 -127 21
-19 74 -25 90 -9 12 12 1 55 -14 53 -35 -4 -37 0 -34 94 3 87 4 92 26 95 34 5
31 52 -3 52 -23 0 -25 3 -25 50 0 55 -6 60 -38 30z"/>
<path d="M2370 422 c-84 -14 -135 -133 -96 -226 28 -66 103 -99 176 -77 42 12
80 52 80 82 0 28 -46 24 -73 -5 -22 -25 -35 -30 -69 -27 -25 1 -58 37 -58 61
0 19 7 20 106 20 l107 0 -7 47 c-7 52 -25 86 -59 107 -26 16 -72 24 -107 18z
m81 -73 c32 -32 19 -44 -51 -44 -70 0 -81 10 -50 43 26 28 73 29 101 1z"/>
<path d="M2793 420 c-43 -10 -62 -27 -84 -75 -63 -138 52 -277 184 -222 35 15
81 72 71 89 -11 17 -56 7 -77 -16 -22 -25 -35 -30 -69 -27 -25 1 -58 37 -58
61 0 19 7 20 105 20 l105 0 0 33 c0 93 -84 158 -177 137z m88 -71 c31 -31 19
-44 -46 -47 -70 -4 -83 6 -55 41 26 33 71 36 101 6z"/>
<path d="M3385 420 c-75 -16 -110 -66 -109 -158 1 -72 20 -106 75 -134 101
-52 204 20 204 142 -1 105 -74 170 -170 150z m84 -76 c24 -30 28 -97 10 -138
-16 -34 -57 -47 -96 -31 -36 15 -43 31 -43 98 0 38 5 56 22 74 30 33 80 31
107 -3z"/>
<path d="M3600 271 l0 -151 29 0 29 0 4 111 c3 96 6 113 22 125 11 8 30 14 43
14 33 0 43 -34 43 -151 l0 -99 29 0 29 0 4 111 c3 96 6 113 22 125 11 8 30 14
43 14 33 0 43 -34 43 -151 l0 -99 31 0 31 0 -4 131 c-3 123 -4 132 -27 150
-29 23 -98 25 -129 4 -19 -14 -24 -14 -47 1 -18 12 -37 15 -72 10 -66 -8 -65
-8 -95 0 l-28 6 0 -151z"/>
</g>
</svg>
