<?xml version="1.0" standalone="no"?>
<!DOCTYPE svg PUBLIC "-//W3C//DTD SVG 20010904//EN"
 "http://www.w3.org/TR/2001/REC-SVG-20010904/DTD/svg10.dtd">
<svg version="1.0" xmlns="http://www.w3.org/2000/svg"
 width="1920.000000pt" height="1080.000000pt" viewBox="0 0 1920.000000 1080.000000"
 preserveAspectRatio="xMidYMid meet">

<g transform="translate(0.000000,1080.000000) scale(0.100000,-0.100000)"
fill="#000000" stroke="none">
<path d="M0 5400 l0 -5400 9600 0 9600 0 0 5400 0 5400 -9600 0 -9600 0 0
-5400z m6276 2640 c1178 -93 1834 -646 1988 -1677 40 -266 44 -618 11 -863
-60 -434 -218 -807 -467 -1105 -395 -472 -937 -736 -1631 -794 -75 -7 -408
-11 -803 -11 l-674 0 0 2230 0 2230 724 0 c397 0 781 -5 852 -10z m1844 -230
l0 -240 -175 0 -175 0 -80 69 c-217 187 -477 318 -770 385 l-105 25 653 0 652
1 0 -240z m541 -2712 c52 -23 105 -82 130 -147 17 -43 22 -77 22 -146 -1 -147
-45 -235 -142 -282 -54 -27 -62 -28 -216 -28 l-160 0 -3 300 c-1 165 0 306 3
314 8 20 315 11 366 -11z m546 -164 c46 -35 53 -58 53 -199 0 -120 5 -163 24
-222 7 -22 5 -23 -48 -23 -46 0 -56 3 -61 20 -6 20 -7 19 -48 -2 -55 -29 -160
-32 -200 -5 -95 62 -85 199 18 242 17 7 59 18 95 24 118 21 120 21 120 42 0
34 -36 59 -86 59 -57 0 -78 -11 -94 -51 -13 -30 -15 -31 -59 -24 -25 4 -48 8
-49 10 -10 9 23 79 49 105 40 39 78 50 176 47 65 -2 87 -6 110 -23z m404 3
c34 -18 48 -34 63 -70 11 -26 18 -48 15 -51 -2 -2 -25 -7 -52 -10 -40 -6 -48
-5 -54 11 -13 37 -36 53 -75 53 -49 0 -78 -15 -78 -40 0 -16 17 -24 88 -46
118 -36 150 -52 167 -85 37 -70 4 -157 -71 -194 -39 -19 -42 -22 -47 -75 -5
-45 -12 -60 -37 -82 -37 -34 -55 -35 -71 -6 -10 18 -8 24 7 35 10 7 12 13 6
13 -8 0 -12 18 -12 49 0 46 -1 49 -31 55 -41 8 -94 63 -108 111 -6 21 -9 40
-8 41 1 2 25 6 53 9 l51 7 6 -31 c12 -60 118 -79 163 -30 29 32 8 50 -92 79
-49 14 -99 32 -111 38 -50 28 -69 117 -36 173 41 68 177 92 264 46z m427 8
c87 -37 126 -105 126 -221 0 -107 -28 -166 -98 -209 -42 -25 -60 -30 -116 -30
-133 0 -214 86 -214 229 -1 117 38 191 119 227 49 23 133 24 183 4z m435 -1
c21 -12 32 -13 35 -5 2 6 24 11 48 11 l44 0 0 -237 c0 -131 -5 -254 -10 -274
-20 -71 -99 -119 -197 -119 -107 1 -183 58 -183 139 0 30 2 33 23 27 12 -3 32
-6 45 -6 15 0 26 -8 32 -24 12 -32 39 -46 89 -46 49 0 87 31 96 79 7 30 5 33
-11 26 -58 -23 -79 -27 -117 -21 -88 13 -148 77 -167 176 -23 119 31 243 120
279 39 15 118 13 153 -5z m317 -161 c0 -141 3 -169 17 -185 24 -27 85 -24 120
6 l28 24 3 161 4 161 49 0 49 0 0 -230 0 -230 -45 0 c-34 0 -45 4 -45 16 0 9
-3 14 -8 12 -111 -49 -171 -48 -229 5 -45 42 -52 79 -53 270 l0 157 55 0 55 0
0 -167z m710 131 c0 -31 -15 -53 -120 -175 -66 -76 -120 -142 -120 -147 0 -4
57 -7 127 -7 l128 0 3 -47 3 -48 -205 0 -206 0 0 43 c0 41 6 51 121 183 l121
139 -116 3 -116 3 0 44 0 45 190 0 190 0 0 -36z m-2910 -949 l0 -315 -50 0
-50 0 0 315 0 315 50 0 50 0 0 -315z m650 158 l0 -157 73 72 c71 71 73 72 124
72 29 0 55 -5 59 -11 4 -7 -24 -42 -70 -87 -42 -41 -76 -76 -76 -78 0 -3 41
-65 90 -139 50 -74 90 -137 90 -140 0 -3 -27 -5 -59 -5 l-60 0 -66 103 c-37
56 -69 104 -71 106 -2 2 -10 -2 -19 -9 -11 -9 -15 -34 -15 -106 l0 -94 -49 0
c-35 0 -51 4 -55 16 -3 9 -6 143 -6 299 0 156 3 290 6 299 4 12 20 16 55 16
l49 0 0 -157z m-1328 70 l3 -78 38 -3 c36 -3 37 -4 37 -42 0 -38 -1 -39 -37
-42 l-38 -3 0 -135 0 -135 35 -5 c32 -5 35 -9 41 -45 4 -22 5 -43 2 -47 -2 -5
-31 -8 -63 -8 -48 0 -64 5 -87 24 l-28 24 -3 166 -3 166 -25 0 c-21 0 -24 4
-24 40 0 36 3 40 25 40 23 0 25 3 25 53 0 51 1 53 43 79 23 14 45 27 49 27 4
1 8 -34 10 -76z m408 -95 c70 -36 110 -110 110 -205 l0 -43 -161 0 -160 0 6
-22 c12 -40 41 -73 79 -87 33 -12 41 -12 71 2 19 9 41 30 50 48 16 30 19 31
61 26 25 -2 47 -7 50 -10 12 -12 -18 -75 -49 -104 -41 -40 -62 -50 -119 -58
-99 -15 -196 39 -233 129 -35 83 -14 226 43 290 51 57 174 73 252 34z m633 8
c72 -30 113 -95 124 -196 l6 -60 -162 0 c-104 0 -161 -4 -161 -10 0 -6 6 -25
14 -44 32 -77 148 -84 183 -10 18 36 31 40 92 28 26 -6 30 -10 25 -28 -50
-172 -305 -195 -394 -36 -34 61 -35 194 -3 255 24 46 62 84 101 101 37 17 136
17 175 0z m882 -5 c114 -51 157 -207 96 -345 -23 -54 -90 -102 -156 -112 -60
-9 -142 17 -184 58 -48 47 -64 91 -64 178 0 116 36 183 118 221 52 24 138 24
190 0z m479 -6 l36 -24 36 24 c69 47 180 28 219 -38 18 -29 20 -51 20 -217 l0
-185 -52 -3 -53 -3 0 172 c0 146 -2 175 -17 191 -23 25 -67 23 -100 -6 l-28
-24 -3 -166 -3 -166 -50 0 -49 0 -1 158 c-1 86 -4 168 -8 182 -10 36 -52 48
-95 28 -29 -14 -36 -24 -45 -68 -6 -28 -11 -107 -11 -175 l0 -125 -50 0 -50 0
0 230 0 230 49 0 c27 0 51 -5 53 -11 2 -6 14 -5 33 5 47 25 125 21 169 -9z"/>
<path d="M5250 5809 l0 -1721 468 5 c257 3 482 9 500 12 l32 7 0 1709 0 1709
-500 0 -500 0 0 -1721z"/>
<path d="M6790 7408 c0 -7 0 -717 0 -1578 0 -861 0 -1568 0 -1573 0 -12 149
67 245 131 363 240 576 590 661 1082 21 127 30 512 15 662 -65 627 -335 1036
-825 1249 -102 45 -96 43 -96 27z"/>
<path d="M8405 5009 c-3 -8 -4 -104 -3 -214 l3 -200 98 1 c113 0 137 12 175
85 20 39 23 56 20 141 -3 103 -14 129 -69 170 -33 24 -216 38 -224 17z"/>
<path d="M9066 4684 c-77 -15 -96 -27 -96 -59 0 -75 136 -71 175 5 18 35 20
70 3 69 -7 -1 -44 -7 -82 -15z"/>
<path d="M9887 4850 c-34 -27 -50 -80 -45 -151 3 -48 10 -65 32 -88 35 -36 68
-45 112 -31 86 29 102 218 23 274 -32 22 -91 20 -122 -4z"/>
<path d="M10347 4850 c-14 -11 -31 -36 -37 -56 -17 -50 -8 -139 17 -172 40
-54 112 -50 155 8 22 30 27 144 8 182 -30 58 -96 75 -143 38z"/>
<path d="M8149 4001 c-52 -53 -42 -61 71 -61 113 0 123 8 71 61 -23 23 -38 29
-71 29 -33 0 -48 -6 -71 -29z"/>
<path d="M8802 4005 c-16 -14 -32 -34 -35 -45 -5 -19 0 -20 100 -20 103 0 104
0 98 23 -19 66 -108 89 -163 42z"/>
<path d="M9677 4010 c-34 -27 -50 -80 -45 -147 5 -60 29 -100 73 -122 43 -21
102 2 126 49 23 43 25 139 4 180 -31 61 -107 80 -158 40z"/>
</g>
</svg>
