<?xml version="1.0" encoding="UTF-8"?>
<!DOCTYPE svg PUBLIC "-//W3C//DTD SVG 1.1//EN" "http://www.w3.org/Graphics/SVG/1.1/DTD/svg11.dtd">
<!-- Creator: CorelDRAW 2017 -->
<svg xmlns="http://www.w3.org/2000/svg" xml:space="preserve" width="55px" height="50px" version="1.1" style="shape-rendering:geometricPrecision; text-rendering:geometricPrecision; image-rendering:optimizeQuality; fill-rule:evenodd; clip-rule:evenodd"
viewBox="0 0 505 500"
 xmlns:xlink="http://www.w3.org/1999/xlink">
 <defs>
  <style type="text/css">
   <![CDATA[
    .fil0 {fill:#4ba5ff;fill-rule:nonzero}
   ]]>
  </style>
 </defs>
 <g id="Слой_x0020_1">
  <metadata id="CorelCorpID_0Corel-Layer"/>
  <path class="fil0" d="M23 203c0,-4 1,-8 3,-11l151 151 -133 133c-12,-2 -21,-13 -21,-25l0 -247zm229 -171l210 141 -54 54 0 -57c0,-4 -3,-7 -7,-7l-293 0c-4,0 -7,3 -7,7l0 61 -58 -58 210 -141zm229 171l0 247c0,12 -9,23 -21,25l-133 -133 151 -151c2,3 3,7 3,11zm-366 50l0 -75 278 0 0 71 -141 141 -137 -137zm-37 223l116 -116 50 50c2,2 5,4 9,4 3,0 6,-1 9,-4l50 -50 116 116 -349 0zm-65 -302c-6,8 -10,18 -10,29l0 247c0,26 21,46 46,46l6 0 1 1 1 -1 390 0 1 1 1 -1 6 0c26,0 46,-21 46,-46l0 -247c0,-11 -4,-21 -10,-29 0,-3 -1,-6 -4,-9l-227 -159c-5,-5 -13,-5 -17,0l-227 159c-2,2 -4,6 -4,9z"/>
 </g>
</svg>
