<?xml version="1.0" encoding="UTF-8"?><svg xmlns="http://www.w3.org/2000/svg" viewBox="0 0 68 67.95" width="34px" height="34px"><defs><style>.g{fill:#E84545};</style></defs><g id="a"/><g id="b"><g id="c"><g id="d"><g id="e"><rect class="g" x="0" y="16.6" width="15.09" height="12.57" rx="6.28" ry="6.28"/><path class="g" d="M61.69,16.64h-19.89c-3.47,0-6.28,2.81-6.28,6.28h0V61.49c0,3.38,2.6,6.29,5.98,6.45,3.61,.17,6.59-2.71,6.59-6.28v-26.58c0-3.25,2.64-5.89,5.89-5.89h7.72c3.47,0,6.28-2.81,6.28-6.28h0c0-3.47-2.81-6.28-6.28-6.28Z"/></g><path id="f" class="g" d="M19.02,0H6.31C2.84,0,.02,2.81,.02,6.28H.02C.02,9.75,2.84,12.57,6.31,12.57h6.82c3.25,0,5.89,2.64,5.89,5.89V61.67c0,3.47,2.81,6.28,6.28,6.28h0c3.47,0,6.28-2.81,6.28-6.28V18.46c0-3.25,2.64-5.89,5.89-5.89h24.24c3.47,0,6.28-2.81,6.28-6.28h0c0-3.47-2.81-6.28-6.28-6.28H19.02Z"/></g></g></g></svg>